<svg id="Capa_1" enable-background="new 0 0 512 512" height="512" viewBox="0 0 512 512" width="512" xmlns="http://www.w3.org/2000/svg"><g><path d="m315.096 116.516c2.443-4.869.827-10.815-3.745-13.777-13.018-8.434-41.686-22.809-74.342-12.624-33.318 7.747-50.765 34.657-57.722 48.52-2.443 4.869-.827 10.815 3.745 13.777 13.018 8.434 41.686 22.809 74.342 12.624 33.318-7.747 50.765-34.656 57.722-48.52z" fill="#46cc8d"/><path d="m315.093 116.515c-6.959 13.866-24.402 40.779-57.72 48.517-32.652 10.187-61.327-4.181-74.343-12.616-3.864-2.511-5.626-7.153-4.591-11.478 14.696 8.24 40.082 17.955 68.481 9.101 33.318-7.748 50.771-34.66 57.72-48.527.379-.748.656-1.517.851-2.306 2.203 1.24 4.161 2.439 5.862 3.536 4.57 2.961 6.189 8.905 3.74 13.773z" fill="#00c27a"/><path d="m154.633 113.994c5.691-24.84 15.859-51.516 33.964-70.963 4.543-4.88 11.244-7.14 17.811-5.991 13.595 2.379 20.634 17.701 13.452 29.487-14.875 24.411-33.736 67.003-33.617 125.92v29.789h-33.065l-2.08-14.608c-4.44-31.171-3.496-62.943 3.535-93.634z" fill="#e19974"/><path d="m222.723 56.438c0 3.403-.902 6.877-2.859 10.085-14.881 24.412-33.738 67.005-33.615 125.924v29.793h-33.072l-.605-4.264h15.199v-29.792c-.123-58.909 18.745-101.501 33.615-125.914 1.957-3.208 2.859-6.692 2.859-10.095 0-5.575-2.419-10.966-6.58-14.686 2.798-.789 5.78-.963 8.742-.451 9.89 1.732 16.316 10.31 16.316 19.4z" fill="#dc8758"/><circle cx="167.699" cy="307.543" fill="#fe860a" r="167.699"/><path d="m335.395 307.537c0 92.626-75.081 167.717-167.697 167.717-51.745 0-98.027-23.449-128.783-60.313 27.825 20.518 62.209 32.642 99.411 32.642 92.616 0 167.697-75.091 167.697-167.717 0-40.861-14.614-78.309-38.903-107.394 41.404 30.53 68.275 79.662 68.275 135.065z" fill="#fe7701"/><path d="m355.666 285.351-141.22 133.206c-5.118 4.828-4.224 13.214 1.813 16.829 2.122 1.271 4.52 2.664 7.185 4.15 64.231 35.824 140.229 44.994 211.323 26.182 22.597-5.979 44.431-14.796 64.846-26.182 2.665-1.486 5.063-2.88 7.185-4.15 6.036-3.614 6.931-12.001 1.813-16.829l-141.22-133.206c-3.291-3.105-8.433-3.105-11.725 0z" fill="#fe4fb7"/><path d="m506.802 435.384c-2.126 1.275-4.526 2.664-7.19 4.148-3.675 2.05-7.388 4.015-11.149 5.886 1.634-3.892.888-8.654-2.504-11.848l-141.22-133.208c-.898-.85-1.937-1.465-3.042-1.843l13.964-13.171c3.297-3.099 8.437-3.099 11.734 0l141.211 133.208c5.121 4.829 4.224 13.218-1.804 16.828z" fill="#fe2aa8"/><path d="m461.146 373.786c-18.718 14.099-32.365 19.718-57.091 25.116-27.365 5.974-50.611 5.443-78.037-.244-19.726-4.09-41.74-11.576-64.108-24.872l-47.464 44.774c-5.117 4.828-4.223 13.213 1.812 16.828 2.121 1.27 4.519 2.663 7.182 4.149 42.867 23.904 90.499 35.746 138.087 35.525h.001c47.588.221 95.22-11.621 138.087-35.525 2.664-1.486 5.061-2.879 7.182-4.149 6.036-3.615 6.93-12 1.812-16.828z" fill="#fee8c7"/><path d="m488.464 445.419c1.634-3.892.888-8.654-2.504-11.848l-48.062-45.341c7.691-3.638 14.975-8.21 23.252-14.446l47.458 44.774c5.119 4.827 4.222 13.216-1.806 16.826-2.686 1.681-5.554 3.376-8.604 5.056-3.356 1.848-6.611 3.5-9.734 4.979z" fill="#fedba6"/><path d="m336.484 363.78c-1.077 0-2.171-.227-3.214-.709-3.855-1.777-5.539-6.343-3.761-10.198l6.301-13.664c1.777-3.854 6.341-5.542 10.198-3.761 3.855 1.777 5.539 6.343 3.761 10.198l-6.301 13.664c-1.296 2.812-4.078 4.47-6.984 4.47z" fill="#3e5959"/><path d="m386.572 363.78c-2.906 0-5.688-1.657-6.985-4.47l-6.301-13.664c-1.777-3.855-.094-8.421 3.761-10.198 3.853-1.776 8.421-.093 10.198 3.761l6.301 13.664c1.777 3.855.094 8.421-3.761 10.198-1.042.481-2.136.709-3.213.709z" fill="#3e5959"/><path d="m488.029 398.905s-16.273 9.376-17.682 10.199c-24.198 14.133-51.543 22.059-79.363 24.579-46.196 4.183-96.595-1.293-137.943-23.635-4.1-2.216-8.114-4.591-12.029-7.12-.535-.345-5.865-4.137-5.985-4.023l-20.665 19.654c-5.085 4.837-4.176 13.193 1.845 16.799 2.134 1.278 4.549 2.681 7.234 4.177 42.863 23.909 90.496 35.753 138.088 35.533 47.589.22 95.223-11.624 138.086-35.533 2.685-1.496 5.1-2.899 7.234-4.177 6.021-3.606 6.93-11.962 1.845-16.799z" fill="#46cc8d"/><path d="m507.992 434.562c-.369.293-14.673 8.38-15.835 8.976-.529.274-1.049.548-1.578.812-.709.359-1.408.718-2.116 1.068 1.634-3.892.888-8.654-2.504-11.848l-22.108-20.861c2.192-1.153 4.355-2.362 6.5-3.609 1.323-.775 15.826-9.127 17.517-10.109.104-.057.161-.085.161-.085l20.663 19.652c4.742 4.515 4.27 12.092-.7 16.004z" fill="#00c27a"/></g></svg>